<svg width="171" height="92" viewBox="0 0 171 92" fill="none" xmlns="http://www.w3.org/2000/svg">
<g id="cookware-2">
<g id="pan-2">
<path id="Vector" d="M55.96 48.66C55.96 48.66 66.4 27.42 67 25.32C67.6 23.22 72.22 22.62 71.68 25.32C71.14 28.02 56.2 53.52 55.96 48.66Z" fill="#FFE67B"/>
<path id="Vector_2" d="M57.4 48.36C59.02 45.12 60.58 41.88 62.2 38.64C64.24 34.38 66.46 30.18 68.26 25.8C68.56 25.14 68.74 24.48 69.4 24C69.64 23.88 70.24 23.7 69.52 23.82C68.68 24 68.98 23.82 69.46 24C69.94 24.18 70.3 24.6 70.3 25.14C70.3 25.68 70.12 26.22 69.88 26.7C69.58 27.42 69.22 28.14 68.8 28.86C66.52 33.3 63.94 37.62 61.18 41.82C59.98 43.68 58.72 45.6 57.28 47.34C56.86 47.94 56.32 48.48 55.78 48.96L55.48 49.2L55.36 49.26C55.3 49.26 55.3 49.26 55.3 49.26C56.02 49.08 56.8 48.96 57.58 48.9C57.58 48.84 57.52 48.9 57.46 48.84C57.52 48.66 57.46 48.48 57.4 48.36C57.4 48.06 54.4 48.42 54.46 48.84C54.52 49.44 54.82 49.56 55.36 49.56C56.5 49.62 57.64 49.26 58.6 48.54C60.04 47.34 61.12 45.66 62.14 44.16C65.26 39.6 68.2 34.86 70.78 30C71.68 28.5 72.4 26.94 73.06 25.38C74.26 21.96 68.26 23.28 66.88 24.06C66.1 24.48 65.56 25.2 65.32 26.04C65.02 26.82 64.66 27.54 64.3 28.32C63.16 30.84 61.96 33.3 60.76 35.82C59.5 38.52 58.18 41.16 56.86 43.86C56.38 44.88 55.84 45.9 55.36 46.92C55.06 47.52 54.7 48.06 54.52 48.66C54.52 48.72 54.46 48.84 54.4 48.9C54.34 48.96 55.84 48.9 55.9 48.9C56.32 48.84 57.22 48.72 57.4 48.36Z" fill="#FFE67B"/>
<path id="Vector_3" d="M27.22 35.82C27.22 35.82 28.18 61.6799 28.6 63.5399C29.02 64.9799 29.62 66.4199 30.34 67.7399C30.34 67.7399 65.56 68.2199 68.2 66.3599C70.84 64.4999 71.02 63.0599 71.02 63.0599C71.02 63.0599 73.48 37.02 71.02 35.82C68.56 34.62 27.22 35.82 27.22 35.82Z" fill="#000005"/>
<path id="Vector_4" d="M25.72 35.9399C25.84 39.4199 25.96 42.8999 26.14 46.4399C26.38 51.5399 26.5 56.6399 26.92 61.7399C26.92 62.3399 27.04 62.9999 27.1 63.5999C27.46 65.1599 28.12 66.6599 28.9 68.0399C29.02 68.3399 29.74 68.3399 29.98 68.3399C32.5 68.3999 35.02 68.3999 37.54 68.3999C42.82 68.3999 48.1 68.3999 53.32 68.2799C57.7 68.1599 62.2 68.1599 66.58 67.4399C67.24 67.3799 67.84 67.1999 68.5 67.0199C69.58 66.5999 70.54 65.9399 71.26 65.0999C72.04 64.3199 72.52 63.2999 72.58 62.2199C72.94 58.0799 73.24 53.8799 73.42 49.7399C73.54 47.2199 73.6 44.6399 73.6 42.0599C73.66 40.2599 73.48 38.4599 73.12 36.7199C72.82 35.5799 72.16 35.2799 71.02 35.0999C69.64 34.9199 68.2 34.7999 66.76 34.7999C62.14 34.6199 57.46 34.6799 52.84 34.7399C47.56 34.7999 42.28 34.9199 37.06 35.0399C33.94 35.0999 30.82 35.2199 27.7 35.2799H27.22C26.86 35.2799 25.72 35.4599 25.72 35.9399C25.78 36.4199 26.98 36.3599 27.28 36.3599C29.44 36.2999 31.54 36.2399 33.64 36.1799L40.24 36.0599L42.1 35.9999H43.72L47.68 35.9399C52.6 35.8799 57.52 35.8199 62.44 35.8799C64.24 35.8799 66.04 35.9399 67.84 36.0599L68.8 36.1199C68.38 36.1199 68.74 36.1199 68.92 36.1199L69.28 36.1799C69.46 36.1799 70.06 36.2999 69.58 36.2399C69.64 36.2399 69.7 36.2399 69.76 36.2999C69.94 36.4199 69.58 36.2399 69.7 36.2999C69.82 36.3599 69.64 36.1799 69.7 36.2999C69.76 36.4199 69.82 36.4799 69.88 36.5399C69.94 36.7199 70.06 36.9599 70.06 37.1399C70.24 37.8599 70.36 38.6399 70.42 39.4199C70.6 41.6399 70.6 43.8599 70.54 46.0799C70.42 50.8199 70.12 55.5599 69.76 60.2999C69.7 61.2599 69.64 62.3399 69.52 63.2999C69.34 63.8399 69.04 64.3199 68.68 64.7399C68.14 65.3399 67.54 65.8799 66.82 66.2999C67 66.1799 67 66.1799 66.82 66.2999C66.64 66.4199 67.12 66.2399 66.94 66.2399L66.76 66.2999L66.46 66.3599C66.88 66.2399 66.52 66.3599 66.34 66.3599C66.04 66.4199 65.68 66.4799 65.38 66.5399L65.02 66.5999L64.54 66.6599L63.16 66.7799C60.94 66.9599 58.72 67.0799 56.56 67.1399L52.72 67.2599C51.4 67.2599 50.38 67.3199 48.94 67.3199C46.36 67.3799 43.84 67.3799 41.26 67.3799C37.9 67.3799 34.54 67.3799 31.18 67.3199H30.7L31.78 67.6199C30.82 65.9399 30.16 64.0199 29.98 62.0399C29.8 59.9399 29.68 57.8399 29.62 55.6799C29.38 50.3399 29.14 44.9399 28.9 39.5999L28.78 35.7599C28.66 34.9799 25.72 35.1599 25.72 35.9399Z" fill="#000005"/>
<path id="Vector_5" d="M25.66 10.8001C25.66 10.8001 34.54 8.16006 42.52 8.52006C50.5 8.88006 69.22 11.22 73.78 14.28C78.34 17.34 78.28 19.0201 77.62 19.3201C76.96 19.6201 22.18 11.7001 25.66 10.8001Z" fill="#000005"/>
<path id="Vector_6" d="M25.96 12.0599C30.7 10.6199 35.62 9.89992 40.6 9.77992C45.7 9.71992 50.92 10.4399 55.96 11.1599C60.88 11.8799 65.98 12.5999 70.72 14.2799C71.14 14.3999 71.5 14.5799 71.92 14.7599C71.56 14.6399 72.1 14.8199 72.16 14.8799C72.34 14.9399 72.52 15.0599 72.7 15.1799C73.84 15.8399 74.92 16.6799 75.82 17.6399C75.94 17.7599 76.06 17.8799 76.12 17.9999C76.24 18.1799 76.3 18.2999 76.42 18.4799C76.6 18.7799 76.3 18.2399 76.42 18.4799C76.42 18.5399 76.48 18.5999 76.48 18.5999V18.6599C76.48 18.7799 76.48 18.7199 76.48 18.5399C76.48 18.5999 76.48 18.6599 76.48 18.7199C76.48 18.4199 76.54 18.4199 76.48 18.5999C76.42 18.7799 76.6 18.4199 76.6 18.4199C76.48 18.5999 76.9 18.1799 76.72 18.2999C76.54 18.4199 77.08 18.1199 77.08 18.1199C77.56 17.9999 76.9 18.1199 77.44 18.0599C77.8 17.9999 77.62 18.0599 77.56 18.0599C76.06 17.7599 74.44 17.7599 72.88 17.5199C69.7 17.0999 66.52 16.6799 63.34 16.1999C55.42 15.0599 47.44 13.8599 39.52 12.5399L36.88 12.1199L35.68 11.8799L35.08 11.7599L34.72 11.6999C34.42 11.6399 35.02 11.7599 34.66 11.6999C33.28 11.4599 31.84 11.2199 30.46 10.9199C29.44 10.7399 28.42 10.4999 27.4 10.2599C27.1 10.1999 26.8 10.0799 26.44 10.0199C26.32 9.95994 26.26 9.95993 26.14 9.89993C26.08 9.89993 26.56 10.1399 26.26 9.95993C26.74 10.2599 26.98 10.7999 26.8 11.3399C26.68 11.6399 26.44 11.8799 26.14 11.9999C26.38 11.9399 25.78 12.1199 25.96 12.0599C26.62 11.8799 27.28 11.3399 27.04 10.5599C26.8 9.83993 26.02 9.35993 25.24 9.53993C24.58 9.71993 23.92 10.0799 23.92 10.7999C23.92 11.3399 24.28 11.8799 24.76 12.1199C25.42 12.4199 26.14 12.6599 26.86 12.7799C29.62 13.4399 32.44 13.9199 35.26 14.3999C43.42 15.8399 51.7 17.0999 59.92 18.2999C63.58 18.8399 67.24 19.3199 70.84 19.8599C72.88 20.1599 74.92 20.4599 76.96 20.5799C77.92 20.6399 78.94 20.3999 79.3 19.3799C80.08 17.0999 76.96 14.9399 75.46 13.8599C73.72 12.6599 71.8 11.8199 69.82 11.3399C67.24 10.6199 64.66 10.0199 62.02 9.59993C56.38 8.57993 50.68 7.85993 44.98 7.43993C38.86 7.01993 32.68 7.61992 26.74 9.17992C26.26 9.29992 25.84 9.41993 25.36 9.53993C24.7 9.71993 24.04 10.2599 24.22 11.0399C24.46 11.8199 25.18 12.2399 25.96 12.0599Z" fill="#000005"/>
<path id="Vector_7" d="M28 40.44C25.9 39.9 23.74 40.02 21.7 40.8C20.08 41.52 18.76 42.9 18.22 44.58C17.62 46.5 18.04 48.6 19.3 50.16C20.68 51.9 22.72 52.26 24.76 52.02C27.22 51.72 29.62 51 31.84 49.8C33.1 49.14 31.66 46.5 30.4 47.16C28.42 48.18 26.26 48.9 24.1 49.14C23.14 49.26 22 49.44 21.16 48.9C21.04 48.84 20.92 48.72 20.8 48.6C20.98 48.78 20.5 48.18 20.68 48.48C20.5 48.24 20.38 48 20.32 47.7C19.96 46.26 21.04 44.7 22.3 43.92C24.1 42.78 26.26 42.78 28.3 43.26C29.02 43.44 29.38 42.72 29.32 42.12C29.26 41.28 28.72 40.68 28 40.44Z" fill="#000005"/>
<path id="Vector_8" d="M69.76 42.3601C71.32 41.8201 72.94 41.4001 74.62 41.1601C75.16 41.0401 75.7 41.1001 76.18 41.2201C76.72 41.4601 77.14 41.94 77.26 42.48C77.62 43.86 76.96 45.12 76.06 46.14C75.16 47.1 74.08 47.82 72.88 48.3C71.56 48.84 70.12 48.9601 68.68 48.7201C67.96 48.6001 67.18 48.84 66.7 49.38C66.28 49.98 66.94 50.4001 67.42 50.4601C71.32 51.0601 75.28 49.8601 78.16 47.1601C79.42 45.9001 80.62 44.16 80.26 42.24C79.9 40.08 77.86 39.3 75.88 39.3C73.42 39.42 70.96 39.9 68.68 40.8C68.2 40.98 67.42 41.4601 67.84 42.0601C68.26 42.6601 69.16 42.5401 69.76 42.3601Z" fill="#000005"/>
<path id="Vector_9" d="M49.72 9.89999C50.44 8.03999 51.16 6.12 52.54 4.62C53.74 3.24 55.6 2.16 57.46 2.46C57.64 2.52 57.82 2.57999 58.06 2.63999C58.48 2.69999 57.76 2.15999 57.76 2.27999C57.88 2.69999 58.06 3.11999 58.18 3.59999C58.42 4.67999 58.6 5.75999 58.66 6.83999C58.72 8.81999 57.76 10.62 56.14 11.7C55.78 11.94 57.58 14.28 58.24 13.86C59.68 12.96 60.64 11.4 60.82 9.72C60.94 8.7 60.82 7.62 60.64 6.66C60.52 5.76 60.28 4.86 59.98 3.96C59.2 2.1 57.4 0.35999 55.24 0.23999C53.5 0.23999 51.88 0.959987 50.74 2.27999C49.24 3.83999 48.46 5.88 47.68 7.86C47.5 8.34 48.1 8.93999 48.4 9.23999C48.52 9.17999 49.6 10.2 49.72 9.89999Z" fill="#000005"/>
<path id="Vector_10" d="M13.96 7.80003C12.04 11.04 13.24 15 15.82 17.52C18.4 20.04 22.3 21.54 25.96 21.78C28 21.9 29.98 21.72 31.96 21.18C33.7 20.76 35.32 20.4 37.06 21C38.56 21.48 39.88 22.5 40.78 23.82C41.32 24.54 41.62 25.44 41.68 26.34C41.68 26.76 41.56 27.54 41.14 27.6C40.9 27.66 40.66 27.54 40.54 27.3C40.48 27.12 40.48 27.24 40.6 27.18C41.14 26.88 42.16 27.12 42.7 27.3C44.32 27.78 45.58 29.1 46.06 30.66C46.48 32.16 49.24 31.02 48.88 29.76C47.86 26.04 43.18 23.34 39.52 25.32C38.56 25.8 37.6 26.82 37.66 27.96C37.84 29.04 38.68 29.82 39.76 29.88C41.98 30.06 44.02 28.5 44.38 26.28C44.98 21.96 40.3 18.48 36.4 18.3C33.94 18.18 31.66 19.2 29.2 19.38C26.98 19.56 24.76 19.26 22.66 18.48C20.44 17.76 18.52 16.32 17.08 14.46C15.76 12.54 15.28 10.08 16.54 7.98002C16.78 7.56002 16.6 7.02002 16.18 6.78002C16.06 6.72002 15.94 6.66003 15.76 6.66003C14.98 6.72003 14.26 7.14003 13.96 7.80003Z" fill="#FFE67B"/>
<path id="Vector_11" d="M6.82 16.8599C6.04 21.3599 9.4 25.6199 13.66 26.6399C14.74 26.8799 15.82 26.9999 16.96 26.9999C18.1 26.9399 19.24 26.6399 20.32 26.8199C22.24 27.1199 23.56 28.8599 24.7 30.2999C25 30.6599 25.6 31.3199 26.02 30.7799C26.44 30.2399 25.96 29.2799 25.66 28.8599C24.52 27.3599 23.32 25.8599 21.7 24.8399C20.92 24.3599 20.08 24.0599 19.18 23.9399C18.1 23.8199 17.02 24.1199 15.88 24.1199C12.82 24.1799 7.96 22.6799 8.68 18.7199C8.8 17.9999 8.5 17.2799 8.02 16.7399C7.72 16.4999 6.94 16.1399 6.82 16.8599Z" fill="#FFE67B"/>
</g>
<g id="pan-1">
<path id="Vector_12" d="M109.78 43.8C109.78 43.8 112.78 64.92 116.44 65.76C120.1 66.6 140.56 65.34 143.26 65.76C145.96 66.18 150.16 44.7 149.02 43.8C147.88 42.9 109.78 43.8 109.78 43.8Z" fill="#FFE67B"/>
<path id="Vector_13" d="M108.34 43.74C108.82 47.04 109.42 50.28 110.08 53.52C110.62 56.04 111.28 58.56 112.06 61.08C112.66 62.88 113.32 64.92 114.76 66.24C116.02 67.44 117.88 67.38 119.5 67.44C122.02 67.5 124.54 67.44 127 67.44C132.04 67.32 137.02 67.02 142.06 67.14C142.66 67.2 143.26 67.26 143.86 67.2C144.58 67.02 145.18 66.54 145.54 65.94C146.62 64.44 147.16 62.46 147.7 60.66C149.14 56.16 150.1 51.54 150.58 46.8C150.7 45.48 151 43.5 149.62 42.78C148.72 42.3 147.52 42.36 146.56 42.3C142.54 42.12 138.46 42.18 134.44 42.18C129.46 42.18 124.48 42.3 119.5 42.36C116.38 42.42 113.26 42.48 110.14 42.54H109.66C107.74 42.6 108.16 45.24 109.9 45.18C116.56 45 123.22 44.88 129.88 44.82C134.38 44.76 138.88 44.76 143.44 44.82C144.88 44.82 146.32 44.88 147.76 44.94L148.42 45H148.66C148.96 45 148.24 44.88 148.54 45C148.84 45.12 148.12 44.7 148.12 44.7C148.06 44.64 148 44.52 147.88 44.46C147.64 44.16 147.7 44.1 147.76 44.22C147.76 43.92 147.7 44.04 147.76 44.22C147.76 44.52 147.76 44.7 147.76 45C147.76 45.42 147.76 44.88 147.76 45.24C147.76 45.48 147.76 45.66 147.7 45.9C147.64 46.8 147.46 47.76 147.34 48.66C146.98 51 146.5 53.34 145.9 55.68C145.6 56.88 145.3 58.08 144.94 59.22C144.82 59.7 144.64 60.18 144.52 60.66C144.46 60.9 144.34 61.14 144.28 61.38C144.16 61.8 144.22 61.56 144.04 61.98C143.8 62.76 143.44 63.48 143.02 64.14C142.96 64.26 142.66 64.62 142.96 64.26L142.78 64.5L142.66 64.62C142.84 64.38 142.96 64.44 142.78 64.56C142.6 64.68 142.6 64.56 142.96 64.5C142.72 64.56 143.26 64.56 143.14 64.5C142.84 64.26 141.82 64.44 141.52 64.44C140.62 64.44 139.72 64.44 138.82 64.44C136.24 64.5 133.72 64.56 131.14 64.62C128.44 64.68 125.68 64.74 122.98 64.8C121 64.86 119.02 64.8 117.1 64.62C116.92 64.62 116.5 64.44 116.98 64.62C116.86 64.56 116.74 64.56 116.68 64.56C116.44 64.56 117.04 64.74 116.86 64.62C116.8 64.62 116.74 64.56 116.74 64.5C117.22 64.8 116.8 64.5 116.68 64.38C116.56 64.26 116.86 64.68 116.74 64.44C116.74 64.38 116.68 64.38 116.62 64.32C116.5 64.2 116.44 64.02 116.32 63.9C116.2 63.78 116.14 63.6 116.02 63.42C116.2 63.72 115.9 63.12 115.84 63C114.94 60.96 114.28 58.8 113.8 56.64C112.84 52.86 112.12 48.72 111.52 44.7L111.4 43.98C111.28 43.2 110.62 42.6 109.84 42.6C109.18 42.54 108.58 43.02 108.52 43.68C108.34 43.62 108.34 43.68 108.34 43.74Z" fill="#FFE67B"/>
<path id="Vector_14" d="M109.84 40.32C109.84 40.32 113.98 35.22 126.58 31.8C139.18 28.38 150.94 31.86 149.74 33C148.54 34.14 109.84 40.32 109.84 40.32Z" fill="#FFE67B"/>
<path id="Vector_15" d="M111.04 40.8601L111.22 40.68L111.46 40.4401L111.58 40.3201C112.36 39.6601 113.14 39.0001 114.04 38.4001C115.42 37.5001 116.86 36.6601 118.3 36.0001C120.46 34.9801 122.68 34.1401 124.96 33.4201C130.24 31.8001 135.76 31.2001 141.22 31.6201C143.14 31.8001 145 32.1 146.8 32.58C146.98 32.64 147.1 32.7001 147.46 32.8201C147.7 32.9401 147.94 33.0001 148.18 33.1201C148.3 33.1801 148.54 33.3601 148.24 33.1201C148.3 33.1801 148.36 33.1801 148.42 33.2401C148.54 33.4801 148.36 33.18 148.36 33.18C148.36 33.18 148.42 33.3001 148.36 33.1201C148.3 32.9401 148.3 33.0601 148.3 32.8201C148.3 32.6401 148.78 31.9201 148.96 32.0401L148.78 32.1001C148.48 32.2201 149.2 31.9801 148.84 32.1001L148.48 32.2201C147.76 32.4001 147.04 32.5801 146.26 32.7601C143.92 33.3001 141.58 33.7201 139.18 34.1401C133.12 35.2801 127.06 36.3001 120.94 37.3201C117.16 37.9201 113.38 38.46 109.6 39.18C109 39.3 108.22 39.9001 108.4 40.6201C108.58 41.3401 109.48 41.5201 110.14 41.4001C113.56 40.8601 116.92 40.2601 120.34 39.7201C126.7 38.6401 133.06 37.5601 139.36 36.4201C141.88 35.9401 144.34 35.52 146.86 34.98C148.06 34.74 149.74 34.56 150.76 33.78C152.08 32.76 151 31.6201 149.92 31.1401C148.48 30.4801 146.92 30.0601 145.36 29.8201C139.96 28.9201 134.38 28.9801 128.98 30.1201C123.88 31.1401 118.96 32.9401 114.46 35.4601C112.42 36.5401 110.5 37.9201 108.88 39.6001C108.82 39.6601 108.76 39.72 108.7 39.78C108.34 40.2 108.34 40.8001 108.76 41.1601C108.82 41.2201 108.94 41.2801 109.06 41.3401C109.72 41.6401 110.5 41.4601 111.04 40.8601Z" fill="#FFE67B"/>
<path id="Vector_16" d="M127.96 31.62C127.96 31.62 124.12 29.16 127.18 27.42C130.24 25.68 131.32 27.66 131.02 29.46C130.72 31.26 127.96 31.62 127.96 31.62Z" fill="#FFE67B"/>
<path id="Vector_17" d="M128.2 30.54C128.08 30.48 127.96 30.36 127.84 30.3C127.72 30.24 127.6 30.12 127.48 30L127.36 29.94L127.54 30.12L127.48 30.06L127.3 29.88C127.24 29.82 127.18 29.76 127.12 29.64C127.06 29.52 127.06 29.58 127 29.52L127.18 29.76L127.12 29.7C127.06 29.64 127 29.52 126.94 29.46C126.82 29.28 127.18 29.88 127.06 29.64C127.06 29.58 127 29.58 127 29.52L126.94 29.4C127.12 29.88 127.06 29.7 127 29.58C127 29.52 127 29.52 127 29.46C127.12 29.88 127.06 29.76 127 29.64C127 29.58 127 29.52 127 29.52C127 29.34 126.94 29.88 127 29.64C127 29.52 127.06 29.46 127.06 29.34L126.94 29.58C127.06 29.4 127.18 29.16 127.3 29.04L127.12 29.22C127.6 28.8 128.14 28.5 128.68 28.26L128.44 28.32C128.8 28.14 129.22 28.08 129.64 28.08H129.4C129.46 28.08 129.88 28.08 129.88 28.14C129.88 28.2 129.52 28.02 129.76 28.08L129.88 28.14L129.94 28.2C130.06 28.26 129.64 27.96 129.76 28.08L129.82 28.14C130 28.26 129.58 27.9 129.64 27.96L129.76 28.08C129.4 27.66 129.52 27.78 129.58 27.9C129.64 28.02 129.64 27.96 129.64 28.02C129.76 28.2 129.46 27.6 129.52 27.78C129.52 27.84 129.58 27.84 129.58 27.9C129.58 27.96 129.58 27.96 129.64 28.02C129.64 28.02 129.52 27.6 129.58 27.84C129.58 27.9 129.64 27.96 129.64 28.08V28.2C129.64 28.32 129.58 27.84 129.64 28.02C129.64 28.08 129.64 28.2 129.64 28.26C129.64 28.32 129.64 28.44 129.64 28.5C129.64 28.56 129.58 28.74 129.64 28.38C129.64 28.44 129.64 28.44 129.64 28.5C129.64 28.68 129.58 28.86 129.52 29.04L129.64 28.8C129.52 29.04 129.34 29.28 129.16 29.46L129.34 29.28C128.92 29.64 128.5 29.94 127.96 30.12L128.2 30.06C127.84 30.18 127.48 30.3 127.06 30.36C126.4 30.48 126.46 31.38 126.7 31.86C126.88 32.22 127.12 32.52 127.42 32.76C127.66 32.94 127.96 33.06 128.26 33.06C128.56 33 128.8 32.94 129.1 32.88C129.7 32.7 130.3 32.46 130.78 32.04C131.38 31.56 131.8 30.9 131.86 30.18C131.98 29.34 131.86 28.44 131.5 27.66C130.9 25.92 128.98 25.08 127.24 25.68C127.06 25.74 126.88 25.86 126.7 25.92C126.28 26.1 125.86 26.34 125.5 26.64C125.14 26.94 124.9 27.3 124.72 27.72C124.48 28.5 124.54 29.34 124.96 30.06C125.38 30.9 126.04 31.62 126.76 32.22C127 32.4 127.24 32.58 127.48 32.76C127.72 32.94 128.02 33.06 128.32 33.06C128.56 33 128.8 32.82 128.86 32.52C128.92 32.16 128.86 31.86 128.74 31.56C128.74 31.08 128.5 30.78 128.2 30.54Z" fill="#FFE67B"/>
<path id="Vector_18" d="M152.44 27.66C154.18 30 154 33.24 153.76 36C153.7 36.6 156.58 36.24 156.7 35.34C156.94 32.4 157.06 29.22 155.2 26.76C155.08 26.58 154.6 26.58 154.48 26.58C154.12 26.58 153.7 26.64 153.34 26.82C153.04 26.88 152.14 27.24 152.44 27.66Z" fill="#000005"/>
<path id="Vector_19" d="M155.8 25.56C156.16 26.1 156.4 26.64 156.64 27.18L156.52 26.82C156.7 27.36 156.82 27.9 156.88 28.5L156.82 28.14C156.82 28.38 156.88 28.62 156.88 28.86C156.88 29.22 157 29.64 157.24 29.94C157.48 30.24 157.84 30.42 158.2 30.48C158.56 30.54 158.92 30.42 159.22 30.18C159.46 29.94 159.64 29.58 159.64 29.22C159.58 27.24 158.92 25.38 157.78 23.82C157.3 23.22 156.46 23.1 155.8 23.52C155.32 24.12 155.32 24.96 155.8 25.56Z" fill="#000005"/>
</g>
<g id="stove">
<path id="Vector_20" d="M1.29999 91.32C1.29999 91.32 1.59999 70.68 4.65999 69.06C7.71999 67.44 155.38 62.64 161.5 65.7C167.62 68.76 169.84 88.26 168.16 88.86C166.48 89.46 1.29999 91.32 1.29999 91.32Z" fill="white"/>
<path id="Vector_21" d="M2.68 91.86C2.74 89.22 2.86 86.64 2.98 84.06C3.22 80.04 3.46 75.84 4.66 72C4.9 71.28 5.2 69.96 5.98 69.66C6.1 69.6 6.16 69.6 6.28 69.6C6.52 69.54 6.22 69.6 6.34 69.6L6.58 69.54C7.78 69.36 8.98 69.3 10.18 69.18C14.86 68.82 19.54 68.58 24.22 68.34C31.18 67.98 38.14 67.74 45.16 67.44C53.5 67.14 61.84 66.84 70.18 66.6C79 66.36 87.82 66.12 96.64 65.88C105.04 65.7 113.5 65.52 121.9 65.4C128.98 65.34 136.06 65.28 143.2 65.28C145.96 65.28 148.72 65.34 151.48 65.4C152.62 65.4 153.76 65.46 154.84 65.52L156.34 65.58L157 65.64H157.24H157.54C158.8 65.7 160.12 65.82 161.38 66C161.74 66.06 161.08 65.94 161.38 66C161.5 66 161.56 66.06 161.68 66.06C161.8 66.06 161.2 65.94 161.56 66C161.74 66.06 161.08 65.82 161.26 65.88H161.32L161.02 65.76L161.14 65.82C161.14 65.76 160.96 65.7 161.14 65.82C161.44 66.06 160.96 65.7 161.26 65.94L161.56 66.18C161.86 66.48 162.16 66.78 162.46 67.14C163.06 67.92 163.54 68.76 163.96 69.66C165.82 73.62 166.78 78.12 167.26 82.44C167.5 84 167.5 85.56 167.38 87.12C167.32 87.42 167.2 87.72 167.08 88.02C167.08 88.02 166.84 88.14 167.08 88.08C167.32 88.02 167.14 88.08 167.08 88.08C164.92 88.32 162.7 88.26 160.54 88.32C155.68 88.44 150.76 88.5 145.84 88.62C138.94 88.74 132.04 88.86 125.2 88.92C117.1 89.04 108.94 89.16 100.84 89.28L74.8 89.7L49.72 90L27.7 90.3L10.9 90.48L1.48 90.6H0.280001C-0.379999 90.6 0.400001 91.2 0.580001 91.32C1.18 91.74 1.84 91.92 2.5 91.98L7.6 91.92L21.4 91.74L41.5 91.5L65.68 91.2L91.66 90.84C100.18 90.72 108.7 90.6 117.22 90.48C124.78 90.36 132.4 90.24 139.96 90.12C145.84 90 151.66 89.94 157.54 89.82C160.96 89.76 164.38 89.7 167.74 89.58C168.34 89.64 168.94 89.58 169.54 89.46C170.2 89.16 170.14 87.84 170.2 87.24C170.2 85.38 170.08 83.58 169.78 81.78C169.18 77.46 168.16 72.84 165.82 69.12C164.56 66.84 162.34 65.28 159.82 64.74C156.52 64.14 153.04 64.1999 149.68 64.0799C143.62 63.9599 137.56 63.96 131.5 63.96C123.58 64.02 115.72 64.08 107.8 64.26C98.98 64.44 90.16 64.62 81.34 64.86C72.52 65.1 63.7 65.34 54.94 65.64C47.14 65.88 39.34 66.18 31.48 66.54C25.54 66.78 19.6 67.08 13.72 67.44C10.6 67.62 7.48 67.74 4.36 68.16C4.06 68.16 3.76 68.22 3.52 68.34C2.62 68.76 2.2 70.14 1.96 71.04C0.819999 75 0.580001 79.26 0.34 83.34C0.22 85.8 0.1 88.26 0.0400005 90.78C-0.0799995 91.56 2.68 92.16 2.68 91.86Z" fill="#000005"/>
</g>
<path id="Vector_22" d="M38.92 78.6C38.92 80.76 37.6 82.68 35.62 83.52C34.72 83.88 33.76 83.94 32.8 83.7C32.44 83.58 32.08 83.46 31.78 83.28C31.42 83.04 31.06 82.74 30.76 82.38C29.44 80.7 29.26 78.36 30.34 76.5C31.3 74.76 33.22 73.8 35.2 73.98C35.44 74.04 35.68 74.1 35.92 74.16L36.28 74.34L36.52 74.46C36.4 74.4 36.4 74.4 36.58 74.52C37 74.76 37.42 75.12 37.72 75.48C38.5 76.32 38.92 77.46 38.92 78.6C38.92 79.92 41.8 80.7 41.8 79.2C41.68 76.14 39.76 73.38 36.88 72.3C34 71.22 30.52 71.76 28.48 74.16C26.56 76.44 26.32 79.68 27.82 82.26C29.56 85.02 32.68 86.46 35.92 85.98C39.28 85.44 41.74 82.62 41.8 79.26C41.8 77.94 38.92 77.1 38.92 78.6Z" fill="#000005"/>
<path id="Vector_23" d="M29.86 79.68C30.22 79.62 30.58 79.56 30.94 79.5L31.24 79.44C31.06 79.44 31.3 79.44 31.36 79.44L31.9 79.38C32.26 79.32 32.56 79.32 32.92 79.26C32.98 79.26 33.1 79.26 33.16 79.26C32.86 79.26 33.16 79.26 33.22 79.26H33.82C33.94 79.26 34.42 79.26 34.54 79.14C34.66 79.02 34.54 79.02 34.42 78.96C33.76 78.78 33.04 78.72 32.38 78.72C30.7 78.78 29.02 78.96 27.34 79.26C27.22 79.26 27.1 79.32 27.16 79.44C27.22 79.56 27.76 79.62 27.82 79.62C28.48 79.74 29.2 79.74 29.86 79.68Z" fill="#000005"/>
<path id="Vector_24" d="M55.3 72.48C55.48 72.48 55.72 72.54 55.9 72.54C55.06 72.6 55.06 72.24 55.3 72.42C55.36 72.48 55.48 72.54 55.6 72.54C56.08 72.84 56.56 73.2 56.98 73.62C57.76 74.46 58.3 75.54 58.48 76.68C58.84 78.9 57.94 81.18 56.14 82.56C55.18 83.28 54.1 83.7 52.9 83.76C52.6 83.76 52.36 83.76 52.06 83.76C51.52 83.76 52.9 84.12 52.54 83.88C52.06 83.58 51.58 83.28 51.1 82.86C48.7 80.52 48.7 76.74 50.98 74.34C52.12 73.14 53.74 72.48 55.42 72.54C55.6 72.54 55.3 72.36 55.3 72.36C55.06 72.24 54.76 72.12 54.46 72.06C51.28 70.98 47.86 72.6 46.72 75.78C45.76 78.54 46.9 81.6 49.42 83.04C50.98 83.94 52.72 84.48 54.46 84.66C55.84 84.78 57.22 84.54 58.36 83.82C60.76 82.38 61.9 79.44 61.06 76.74C60.64 75.36 59.74 74.16 58.54 73.32C56.8 72.3 54.82 71.7 52.84 71.58C52.24 71.58 53.2 71.88 53.32 71.94C53.98 72.24 54.64 72.42 55.3 72.48Z" fill="#000005"/>
<path id="Vector_25" d="M55.6 84.06C55.36 82.56 55.18 81.06 55.18 79.56C55.12 79.14 55 78.78 54.76 78.48C54.58 78.18 54.28 78 53.92 77.88C53.62 77.82 53.32 77.8801 53.08 78.1201C52.9 78.3601 52.78 78.7201 52.84 79.0201C52.84 80.5201 53.02 82.0201 53.26 83.5201C53.32 83.8801 53.44 84.3 53.68 84.6C53.92 84.9 54.22 85.08 54.52 85.2C54.82 85.26 55.12 85.2 55.36 84.96C55.54 84.72 55.66 84.36 55.6 84.06Z" fill="#000005"/>
<path id="Vector_26" d="M124.78 77.04C124.72 79.32 123.4 81.42 121.36 82.44C120.34 82.92 119.14 83.1 118 82.98C117.46 82.92 116.92 82.74 116.44 82.56C116.38 82.56 115.78 82.26 115.84 82.2L116.02 82.32C115.84 82.32 115.36 81.18 115.3 81C115.12 80.46 115 79.92 114.94 79.32C114.88 78.18 115.12 77.04 115.72 76.02C116.86 74.04 118.96 72.84 121.24 72.96C121.9 73.02 122.56 73.14 123.16 73.38C123.28 73.44 123.94 73.68 123.94 73.8C123.88 73.74 123.82 73.68 123.76 73.62C123.76 73.62 124.48 74.94 124.54 75.12C124.72 75.78 124.78 76.44 124.78 77.04C124.78 77.22 125.14 77.52 125.2 77.64C125.44 77.94 125.74 78.18 126.04 78.42C126.16 78.54 127 79.2 127 78.9C126.94 75.72 124.42 72.96 121.72 71.58C118.72 69.96 115 71.1 113.38 74.1C112.3 76.08 112.42 78.54 113.68 80.46C115.3 82.98 118.3 85.38 121.48 85.08C124.66 84.72 127 82.08 127 78.9C127 78.72 126.64 78.42 126.58 78.3C126.34 78 126.04 77.76 125.74 77.52C125.68 77.46 124.78 76.74 124.78 77.04Z" fill="#000005"/>
<path id="Vector_27" d="M113.32 79.38C113.68 79.32 114.04 79.26 114.46 79.2L115 79.14H115.12L115.42 79.08C116.14 79.02 116.92 78.96 117.64 78.9C117.94 78.9 118.24 78.78 118.54 78.66C118.9 78.48 119.26 78.3 119.56 78.06C119.74 77.94 120.04 77.76 120.04 77.52C120.04 77.28 119.92 77.28 119.74 77.28C118.18 77.34 116.56 77.52 115 77.82C114.28 78 113.68 78.3 113.14 78.78C113.02 78.9 112.84 79.08 112.9 79.26C112.96 79.44 113.2 79.38 113.32 79.38Z" fill="#000005"/>
<path id="Vector_28" d="M140.32 71.4C139.66 71.4 139.72 71.28 140.08 71.4C140.32 71.46 140.56 71.58 140.8 71.7C141.34 71.94 141.82 72.3 142.24 72.72C143.08 73.5 143.62 74.52 143.92 75.66C144.4 77.88 143.62 80.16 141.94 81.66C141.04 82.38 139.96 82.86 138.82 82.98C138.22 83.04 139.06 82.98 139.18 83.04C138.94 82.92 138.7 82.92 138.46 82.8C137.92 82.56 137.44 82.26 137.02 81.9C135.28 80.34 134.56 78 135.22 75.78C135.88 73.26 138.16 71.46 140.74 71.4C140.74 71.4 141.16 71.4 141.22 71.34C141.28 71.28 140.8 71.16 140.8 71.16C140.08 70.98 139.42 70.92 138.7 70.92C135.94 70.92 133.36 72.36 132.4 75.06C131.5 77.7 132.52 80.64 134.8 82.14C136.24 82.98 137.86 83.46 139.48 83.46C140.98 83.64 142.54 83.4 143.92 82.74C146.38 81.42 147.58 78.6 146.92 75.84C146.56 74.4 145.66 73.2 144.46 72.3C142.9 71.16 140.8 70.92 138.94 70.86C138.88 70.86 138.34 70.8 138.22 70.92C138.1 71.04 138.22 70.98 138.34 71.1C138.64 71.22 138.94 71.28 139.24 71.28C139.6 71.34 139.96 71.34 140.32 71.4Z" fill="#000005"/>
<path id="Vector_29" d="M141.16 83.7599C140.92 82.2599 140.8 80.7599 140.74 79.2599C140.68 79.0199 140.56 78.7799 140.44 78.5999C140.2 78.2999 139.9 78 139.6 77.82C139.48 77.7 138.4 77.0399 138.4 77.5799C138.4 79.0799 138.58 80.5799 138.82 82.0799C139 82.6799 139.48 83.2199 140.02 83.5199C140.26 83.6999 140.56 83.8799 140.86 83.9399C140.92 83.9399 141.22 83.9999 141.16 83.7599Z" fill="#000005"/>
</g>
</svg>
