<svg xmlns="http://www.w3.org/2000/svg" viewBox="0 0 43.17 33.57"><defs><style>.cls-1,.cls-2{fill:#ffe67b;}.cls-1{fill-rule:evenodd;}</style></defs><g id="Layer_2" data-name="Layer 2"><g id="Layer_1-2" data-name="Layer 1"><path class="cls-1" d="M21.19,21.88a8.85,8.85,0,0,0-1.07.43A7.72,7.72,0,0,0,20.63,21l.15-.16.44.47.43.42-.08.07-.38.11Zm5-5.65c-.47-.47-1.4-.38-2.51.16a13.12,13.12,0,0,0-3,2.14,3.07,3.07,0,0,0-1.7-2,4.72,4.72,0,0,0-1.24-.37,3.61,3.61,0,0,1,1.68,1.75c.72,2.26-2.67,3.47-2.25,5.62a1.16,1.16,0,0,0,0,.18c-.37.36-.8.79-.3,1.28l.7.7c.43.4.89,0,1.2-.35l.16,0c2.68.47,4.35-5.14,7.41-.52a4.86,4.86,0,0,0-.3-1.1,3.11,3.11,0,0,0-2.1-1.89,13,13,0,0,0,2.14-3c.54-1.12.64-2.05.16-2.52Zm-2.31.46a3.27,3.27,0,0,1,1.61-.4,5.32,5.32,0,0,0-1.11.67l-.2.15c-.1-.14-.2-.27-.3-.42Zm2.26.25a3.42,3.42,0,0,1-.42,1.63,4.13,4.13,0,0,1-.42-.31l.16-.21a5.93,5.93,0,0,0,.68-1.11Zm-.59,1.95a8.69,8.69,0,0,1-.59,1,5.6,5.6,0,0,1-.59-.46c.26-.3.5-.58.71-.85a5.09,5.09,0,0,0,.47.34Zm-.8,1.26c-.22.3-.46.61-.73.92a7.48,7.48,0,0,1-.7-.54c.29-.29.56-.58.81-.86a6.13,6.13,0,0,0,.62.48Zm-1,1.2-.3.32a4.63,4.63,0,0,0-1.29,0c.23-.21.46-.44.69-.67l.19-.19a9,9,0,0,0,.71.56Zm-3-2.4.35-.32a9,9,0,0,0,.56.71l-.22.21-.71.73a4.57,4.57,0,0,0,0-1.33Zm.62-.56c.31-.27.63-.52.94-.74.13.19.3.41.48.63-.29.25-.58.52-.87.8a6.87,6.87,0,0,1-.55-.69Zm1.23-.95c.33-.22.65-.42.95-.58.11.16.23.32.35.47-.27.21-.55.45-.85.71q-.25-.32-.45-.6Zm2-.18c.73-.54,1.23-.83,1.32-.74s-.2.58-.74,1.31l-.14.2-.24-.23c-.13-.13-.26-.27-.38-.41l.18-.13Zm.21,1c-.21.27-.44.55-.7.84l-.31-.3-.5-.54c.29-.25.57-.49.84-.7a5.66,5.66,0,0,0,.4.44l.27.26Zm-.94,1.11c-.25.28-.52.57-.8.86l-.39-.38q-.27-.27-.51-.54c.29-.29.58-.55.86-.81.16.19.33.37.51.55l.33.32Zm-1.06,1.12-.18.19q-.37.38-.75.72c-.14-.14-.29-.28-.43-.43s-.31-.31-.45-.48c.22-.24.46-.49.71-.73l.2-.2c.16.18.34.37.51.54s.26.27.39.39Z"/><path class="cls-2" d="M42.3,10.09H.84a.78.78,0,0,0-.75.81A23.31,23.31,0,0,0,3.42,22.49a22.44,22.44,0,0,0,9.81,8.3l.13.07v2.28a.43.43,0,0,0,.43.43H28.41a.33.33,0,0,0,.33-.33V30.88h0a19.74,19.74,0,0,0,10.71-7.6A23.36,23.36,0,0,0,43.07,11s0-.07,0-.1A.78.78,0,0,0,42.3,10.09ZM38.19,22.4a18.09,18.09,0,0,1-9.76,6.94H13.79a21,21,0,0,1-9-7.67,21,21,0,0,1-3-9.93H41.48A20.85,20.85,0,0,1,38.19,22.4Z"/><path class="cls-1" d="M37.55,5.26c-1.46,2.28-1.1,3.1.29,4.13C39.67,7.77,38.47,6.62,37.55,5.26Z"/><path class="cls-1" d="M43.17,4.21c-1.14.08-4,.73-3.2,3.64C41.93,8.09,43.12,7.08,43.17,4.21Z"/><path class="cls-1" d="M28.53,7.06c.81,2.45,1.63,2.67,3.23,2.26C31.65,7,30.08,7.2,28.53,7.06Z"/><path class="cls-1" d="M31.28,6.56c-.1-2.16-1.56-2-3-2.1C29,6.74,29.79,6.94,31.28,6.56Z"/><path class="cls-1" d="M31.41,4.23C32.66,3,32.63,1.63,30.68,0,30.1.83,29,3.14,31.41,4.23Z"/><path class="cls-1" d="M34.93,6c-1.42.65-3,1-2.28,3.22C34.29,9,35,8.53,34.93,6Z"/><path class="cls-1" d="M34.28,3.41c-1.31.61-2.76.93-2.12,3C33.69,6.26,34.34,5.81,34.28,3.41Z"/><path class="cls-1" d="M12.75,8.29A28.32,28.32,0,0,0,6.17,3.62C3.73,2.44,1.7,2.23.66,3.26S-.16,6.32,1,8.76c.2.43.44.87.7,1.32h.91l-.57-1a12.4,12.4,0,0,0,1-.76c.44.56.94,1.14,1.47,1.75H5.94c.18-.18.37-.35.55-.54.38-.39.76-.79,1.11-1.2.61.54,1.24,1.13,1.87,1.74h1.14l0,0c.47-.56.89-1.09,1.22-1.55.26.22.51.45.76.69,0,.29-.06.58-.08.88h2.14c-.59-.51-1.16-1-1.69-1.57Zm-7-4c-.21.31-.44.61-.67.9l-.42-.32A12.72,12.72,0,0,0,2.2,3.39,7,7,0,0,1,5.73,4.28Zm-4,4.1A7.18,7.18,0,0,1,.79,4.81,12.52,12.52,0,0,0,2.27,7.24l.35.47C2.32,8,2,8.17,1.71,8.38ZM2.9,6.77C1.73,5.17,1.1,4.09,1.29,3.89s1.28.44,2.88,1.61l.39.3c-.26.31-.53.6-.82.89s-.34.34-.52.5ZM5.93,9c-.23.23-.45.46-.68.67C4.68,9,4.17,8.39,3.71,7.81l.59-.56c.31-.31.6-.63.89-1,.57.46,1.18,1,1.82,1.53C6.67,8.21,6.3,8.6,5.93,9Zm1.6-1.77c-.64-.56-1.26-1.08-1.84-1.54.26-.34.51-.68.75-1A23.1,23.1,0,0,1,8.52,5.9C8.24,6.31,7.9,6.75,7.53,7.21ZM10,9.5c-.65-.62-1.29-1.21-1.9-1.77.39-.48.75-.94,1-1.37.68.49,1.37,1,2.06,1.62C10.9,8.43,10.49,9,10,9.5Z"/><path class="cls-1" d="M22,6.78a26.13,26.13,0,0,0-5.13,3.41h1.25c.3-.23.59-.46.88-.67.15.21.31.44.49.67h1c-.31-.39-.6-.77-.84-1.13A23.1,23.1,0,0,1,21.73,7.8c.24.35.49.69.75,1-.52.41-1.06.87-1.63,1.36h1.22L23,9.44c.22.26.45.5.68.75h1.12c-.12-.11-.24-.22-.35-.34-.29-.29-.56-.58-.82-.89l.39-.3c1.6-1.17,2.68-1.8,2.88-1.61s-.44,1.28-1.62,2.88l-.19.26h1A11.79,11.79,0,0,0,27.37,8,5.26,5.26,0,0,1,27,10.19h.83c.51-1.66.44-3-.34-3.77C26.47,5.39,24.44,5.6,22,6.78ZM23.53,8l-.43.32q-.34-.43-.66-.9A6.94,6.94,0,0,1,26,6.55,12.14,12.14,0,0,0,23.53,8Z"/><path class="cls-1" d="M34.54,9.19a2.94,2.94,0,0,0-1.26,1h3.48c.13-1-.65-1.86-1.31-2.84A7,7,0,0,0,34.54,9.19Z"/><path class="cls-1" d="M38.6,10.06l.12.11h3.54l.48-.38C41.27,9.07,40,8,38.6,10.06Z"/></g></g></svg>