<svg width="108" height="59" viewBox="0 0 108 59" fill="none" xmlns="http://www.w3.org/2000/svg">
<g id="UgaMix 1" clip-path="url(#clip0_31_35)">
<g id="Layer 2">
<g id="Layer 1">
<path id="Vector" fill-rule="evenodd" clip-rule="evenodd" d="M21.19 36.91C20.8226 37.029 20.4649 37.1762 20.12 37.35C20.329 36.9295 20.4997 36.4911 20.63 36.04L20.78 35.88C20.92 36.04 21.07 36.19 21.22 36.35C21.37 36.51 21.51 36.64 21.65 36.77L21.57 36.85L21.19 36.95V36.91ZM26.19 31.26C25.72 30.79 24.79 30.89 23.68 31.43C22.5821 31.9951 21.5717 32.7159 20.68 33.57C20.5667 33.1296 20.3548 32.7207 20.0603 32.3742C19.7658 32.0277 19.3964 31.7527 18.98 31.57C18.589 31.3813 18.1704 31.2564 17.74 31.2C18.4891 31.5666 19.0843 32.1865 19.42 32.95C20.14 35.2 16.75 36.42 17.17 38.56C17.1653 38.6199 17.1653 38.6801 17.17 38.74C16.8 39.1 16.37 39.53 16.87 40.02L17.57 40.72C18 41.13 18.46 40.72 18.77 40.38H18.93C21.61 40.84 23.28 35.23 26.34 39.85C26.2834 39.4761 26.1827 39.1102 26.04 38.76C25.8639 38.3005 25.582 37.889 25.2172 37.5589C24.8523 37.2288 24.4147 36.9893 23.94 36.86C24.7921 35.9667 25.5127 34.9565 26.08 33.86C26.62 32.74 26.72 31.86 26.24 31.34L26.19 31.26ZM23.88 31.73C24.371 31.4535 24.9265 31.3121 25.49 31.32C25.0961 31.5052 24.7239 31.7333 24.38 32L24.18 32.14L23.88 31.73ZM26.14 31.97C26.1401 32.5401 25.9956 33.1009 25.72 33.6C25.5737 33.5092 25.4334 33.4089 25.3 33.3L25.5 33.04C25.7688 32.6975 25.997 32.3251 26.18 31.93L26.14 31.97ZM25.55 33.97C25.376 34.3162 25.1789 34.6503 24.96 34.97C24.751 34.8332 24.5536 34.6793 24.37 34.51C24.63 34.21 24.87 33.93 25.08 33.66C25.2299 33.7854 25.3869 33.9023 25.55 34.01V33.97ZM24.75 35.23C24.522 35.5454 24.2784 35.8491 24.02 36.14C23.7762 35.974 23.5425 35.7936 23.32 35.6C23.61 35.31 23.88 35.02 24.13 34.74C24.3262 34.9162 24.5333 35.0798 24.75 35.23ZM23.75 36.42L23.45 36.74C23.0221 36.6798 22.5879 36.6798 22.16 36.74C22.3933 36.5333 22.6233 36.3133 22.85 36.08L23.04 35.88C23.2646 36.0815 23.5017 36.2685 23.75 36.44V36.42ZM20.75 34.02L21.1 33.7C21.2722 33.9477 21.4592 34.1848 21.66 34.41L21.44 34.62L20.73 35.35C20.7948 34.909 20.7948 34.461 20.73 34.02H20.75ZM21.37 33.46C21.68 33.19 22 32.94 22.31 32.72C22.4588 32.9383 22.6191 33.1485 22.79 33.35C22.5033 33.6033 22.2133 33.8733 21.92 34.16C21.7217 33.9388 21.538 33.7049 21.37 33.46ZM22.6 32.46C22.93 32.24 23.25 32.05 23.55 31.88L23.9 32.36C23.63 32.57 23.35 32.8 23.05 33.06C22.8833 32.8533 22.7333 32.6533 22.6 32.46ZM24.6 32.28C25.33 31.74 25.83 31.45 25.92 31.54C26.01 31.63 25.72 32.13 25.18 32.86L25.04 33.05L24.8 32.82C24.6658 32.6905 24.5389 32.5536 24.42 32.41L24.6 32.28ZM24.81 33.34C24.6 33.6 24.37 33.88 24.11 34.18L23.8 33.87C23.63 33.7 23.46 33.52 23.3 33.34C23.59 33.08 23.87 32.85 24.14 32.64C24.27 32.79 24.4 32.94 24.54 33.08L24.81 33.34ZM23.87 34.45C23.62 34.73 23.35 35.01 23.07 35.31C22.94 35.18 22.81 35.06 22.68 34.92C22.55 34.78 22.33 34.56 22.17 34.38C22.46 34.1 22.75 33.83 23.03 33.58C23.19 33.76 23.36 33.95 23.54 34.13L23.87 34.45ZM22.81 35.56L22.63 35.75L21.88 36.48L21.48 36.04C21.33 35.88 21.17 35.72 21.03 35.55C21.25 35.31 21.49 35.07 21.74 34.82C21.81 34.76 21.87 34.69 21.94 34.62C22.1 34.81 22.28 34.99 22.45 35.17L22.84 35.55L22.81 35.56Z" fill="#FFE67B"/>
<path id="Vector_2" d="M42.3 25.12H0.839954C0.737499 25.1239 0.636811 25.1479 0.543649 25.1907C0.450488 25.2335 0.366681 25.2943 0.297022 25.3695C0.227364 25.4447 0.173221 25.533 0.13769 25.6291C0.102159 25.7253 0.0859379 25.8276 0.0899542 25.93C0.164137 30.0185 1.31257 34.0156 3.41995 37.52C5.81343 41.184 9.22224 44.0716 13.23 45.83L13.36 45.89V48.18C13.3599 48.236 13.3711 48.2915 13.3929 48.3431C13.4146 48.3947 13.4464 48.4414 13.4865 48.4806C13.5265 48.5197 13.574 48.5504 13.6262 48.5709C13.6783 48.5915 13.734 48.6013 13.79 48.6H28.41C28.4537 48.6014 28.4972 48.5938 28.5379 48.5777C28.5785 48.5616 28.6155 48.5374 28.6464 48.5064C28.6773 48.4755 28.7016 48.4386 28.7177 48.3979C28.7338 48.3572 28.7413 48.3137 28.74 48.27V45.91C33.0745 44.6769 36.8549 41.9943 39.45 38.31C41.7763 34.6372 43.0301 30.3874 43.07 26.04C43.07 26.04 43.07 25.98 43.07 25.95C43.0768 25.8443 43.0619 25.7383 43.0264 25.6385C42.9909 25.5387 42.9354 25.4471 42.8634 25.3695C42.7913 25.2918 42.7042 25.2296 42.6073 25.1867C42.5105 25.1439 42.4059 25.1211 42.3 25.12ZM38.19 37.43C35.8311 40.8091 32.387 43.2792 28.43 44.43H13.79C10.1159 42.7855 6.9919 40.1197 4.78995 36.75C2.97691 33.7459 1.9455 30.3354 1.78995 26.83H41.48C41.3611 30.5957 40.2242 34.2588 38.19 37.43Z" fill="#FFE67B"/>
<path id="Vector_3" fill-rule="evenodd" clip-rule="evenodd" d="M37.5499 20.29C36.0899 22.58 36.4499 23.39 37.8399 24.43C39.6699 22.8 38.4699 21.65 37.5499 20.29Z" fill="#FFE67B"/>
<path id="Vector_4" fill-rule="evenodd" clip-rule="evenodd" d="M43.17 19.24C42.03 19.32 39.17 19.97 39.97 22.89C41.93 23.12 43.12 22.11 43.17 19.24Z" fill="#FFE67B"/>
<path id="Vector_5" fill-rule="evenodd" clip-rule="evenodd" d="M28.5299 22.1C29.3399 24.55 30.1599 24.76 31.7599 24.36C31.6499 22.04 30.0799 22.23 28.5299 22.1Z" fill="#FFE67B"/>
<path id="Vector_6" fill-rule="evenodd" clip-rule="evenodd" d="M31.2799 21.6C31.1799 19.43 29.7199 19.6 28.2799 19.49C28.9999 21.78 29.7899 21.98 31.2799 21.6Z" fill="#FFE67B"/>
<path id="Vector_7" fill-rule="evenodd" clip-rule="evenodd" d="M31.41 19.27C32.66 18.05 32.63 16.66 30.68 15.03C30.1 15.86 29 18.18 31.41 19.27Z" fill="#FFE67B"/>
<path id="Vector_8" fill-rule="evenodd" clip-rule="evenodd" d="M34.93 20.98C33.51 21.63 31.93 21.98 32.65 24.2C34.29 24.04 35 23.56 34.93 20.98Z" fill="#FFE67B"/>
<path id="Vector_9" fill-rule="evenodd" clip-rule="evenodd" d="M34.28 18.44C32.97 19.05 31.52 19.37 32.16 21.44C33.69 21.29 34.34 20.85 34.28 18.44Z" fill="#FFE67B"/>
<path id="Vector_10" fill-rule="evenodd" clip-rule="evenodd" d="M12.7499 23.33C10.7908 21.4645 8.57505 19.8885 6.16994 18.65C3.72994 17.47 1.69994 17.26 0.659942 18.29C-0.380058 19.32 -0.160058 21.35 1.02994 23.8C1.22994 24.22 1.46994 24.66 1.72994 25.11H2.63994C2.43994 24.78 2.24994 24.44 2.06994 24.11C2.41579 23.8771 2.74956 23.6268 3.06994 23.36C3.50994 23.91 4.00994 24.5 4.53994 25.1H5.93994L6.48994 24.57C6.86994 24.17 7.24994 23.77 7.59994 23.36C8.20994 23.91 8.83994 24.49 9.46994 25.1H10.6099C11.0799 24.55 11.4999 24.02 11.8299 23.55C12.0899 23.77 12.3399 24.01 12.5899 24.24C12.5899 24.53 12.5299 24.83 12.5099 25.12H14.6499C14.0599 24.61 13.4899 24.12 12.9599 23.55L12.7499 23.33ZM5.74994 19.33C5.53994 19.64 5.30994 19.94 5.07994 20.24C4.93994 20.12 4.79994 20.02 4.65994 19.92C3.89877 19.3294 3.07358 18.8262 2.19994 18.42C3.43353 18.4085 4.64927 18.715 5.72994 19.31L5.74994 19.33ZM1.74994 23.43C1.12044 22.3383 0.789353 21.1002 0.789942 19.84C1.18705 20.7048 1.68375 21.5203 2.26994 22.27C2.37994 22.43 2.49994 22.58 2.61994 22.74C2.31994 22.98 1.99994 23.2 1.70994 23.41L1.74994 23.43ZM2.89994 21.8C1.72994 20.2 1.09994 19.12 1.28994 18.93C1.47994 18.74 2.56994 19.36 4.16994 20.54L4.55994 20.83C4.30239 21.1408 4.02868 21.4379 3.73994 21.72C3.56994 21.9 3.39994 22.06 3.21994 22.22L2.89994 21.8ZM5.89994 24.02C5.66994 24.25 5.44994 24.47 5.21994 24.68C4.64994 24.04 4.13994 23.43 3.67994 22.85C3.87994 22.67 4.07994 22.48 4.26994 22.28C4.45994 22.08 4.86994 21.65 5.15994 21.28C5.72994 21.74 6.33994 22.28 6.97994 22.81C6.66994 23.24 6.29994 23.64 5.92994 24.04L5.89994 24.02ZM7.49994 22.24C6.85994 21.68 6.23994 21.17 5.65994 20.7C5.91994 20.37 6.16994 20.02 6.40994 19.7C7.1345 20.0761 7.83881 20.49 8.51994 20.94C8.23994 21.35 7.89994 21.79 7.52994 22.24H7.49994ZM9.99994 24.54C9.34994 23.91 8.70994 23.32 8.09994 22.77C8.48994 22.29 8.84994 21.82 9.09994 21.39C9.77994 21.88 10.4699 22.39 11.1599 23.02C10.8999 23.47 10.4899 24.04 9.99994 24.54Z" fill="#FFE67B"/>
<path id="Vector_11" fill-rule="evenodd" clip-rule="evenodd" d="M22 21.81C20.1615 22.7404 18.4396 23.885 16.87 25.22H18.12C18.42 24.99 18.71 24.76 19 24.55C19.15 24.77 19.31 24.99 19.49 25.22H20.49C20.18 24.83 19.89 24.45 19.65 24.1C20.3184 23.6371 21.0129 23.2131 21.73 22.83C21.97 23.18 22.22 23.53 22.48 23.83C21.96 24.24 21.42 24.7 20.85 25.19H22.07L22.98 24.45C23.2 24.71 23.43 24.95 23.66 25.19H24.78C24.66 25.08 24.54 24.97 24.43 24.85C24.1413 24.5679 23.8675 24.2708 23.61 23.96L24 23.67C25.6 22.49 26.68 21.86 26.88 22.06C27.08 22.26 26.44 23.33 25.26 24.93L25.07 25.19H26.07C26.5787 24.5217 27.0145 23.8009 27.37 23.04C27.4031 23.7847 27.277 24.5279 27 25.22H27.83C28.34 23.57 28.27 22.22 27.49 21.45C26.47 20.42 24.44 20.63 22 21.81ZM23.53 23.04L23.1 23.36C22.87 23.06 22.65 22.76 22.44 22.45C23.5309 21.8556 24.7579 21.5558 26 21.58C25.1224 21.9683 24.2933 22.4583 23.53 23.04Z" fill="#FFE67B"/>
<path id="Vector_12" fill-rule="evenodd" clip-rule="evenodd" d="M34.5399 24.23C34.0311 24.4329 33.5931 24.7806 33.2799 25.23H36.7599C36.8899 24.23 36.1099 23.36 35.4499 22.39C35.0547 22.9534 34.7478 23.5739 34.5399 24.23Z" fill="#FFE67B"/>
<path id="Vector_13" fill-rule="evenodd" clip-rule="evenodd" d="M38.6 25.09L38.72 25.21H42.26L42.74 24.83C41.27 24.1 40 23.04 38.6 25.09Z" fill="#FFE67B"/>
<path id="Vector_14" d="M62.52 25.28C61.6315 25.2704 60.7466 25.1665 59.88 24.97C58.9005 24.7608 57.9525 24.4246 57.06 23.97C56.172 23.5157 55.407 22.8536 54.83 22.04C54.2299 21.159 53.938 20.1042 54 19.04C54.0467 16.78 54.0467 14.6967 54 12.79C53.92 10.89 53.86 9.03 53.82 7.22C53.7735 5.33478 53.8336 3.44844 54 1.57C53.28 1.57 52.77 1.51 52.46 1.46C52.3906 1.45264 52.3233 1.43137 52.2623 1.39746C52.2013 1.36355 52.1477 1.3177 52.1048 1.26264C52.0619 1.20758 52.0305 1.14443 52.0125 1.07698C51.9945 1.00952 51.9902 0.939131 52 0.870003C51.9955 0.644948 52.0544 0.42317 52.17 0.230004C52.2483 0.147653 52.3464 0.0868947 52.4551 0.0536091C52.5637 0.0203234 52.6791 0.0156372 52.79 0.0400035C53.79 0.0400035 54.79 0.110003 55.79 0.120003C56.79 0.130003 57.79 0.120003 58.79 0.120003C59.79 0.120003 60.44 0.0400035 61 0.0400035C61.56 0.0400035 61.83 0.310004 61.83 0.840004C61.8319 0.999533 61.7867 1.15608 61.7 1.29C61.6586 1.35567 61.601 1.40951 61.5326 1.44631C61.4643 1.48311 61.3876 1.5016 61.31 1.5H60.45C60.13 1.5 59.84 1.5 59.58 1.5C59.3476 3.88246 59.2674 6.27733 59.34 8.67C59.4133 11.1367 59.4933 13.5667 59.58 15.96C59.6785 18.2267 59.6451 20.4972 59.48 22.76C59.9211 23.005 60.4017 23.1708 60.9 23.25C61.3558 23.3298 61.8173 23.3733 62.28 23.38C63.5073 23.458 64.7262 23.1313 65.75 22.45C66.5791 21.786 67.169 20.8697 67.43 19.84C67.7464 18.5986 67.8977 17.3209 67.88 16.04C67.88 14.78 67.88 13.32 67.88 11.66C67.88 10.01 67.88 8.31 67.88 6.56C67.88 4.81 67.88 3.14 67.96 1.56H67.41C67.15 1.56 66.79 1.56 66.3 1.63C66.208 1.64901 66.1128 1.64539 66.0225 1.61945C65.9323 1.59352 65.8496 1.54605 65.7818 1.48113C65.7139 1.41621 65.6628 1.33577 65.6329 1.24674C65.603 1.15771 65.5951 1.06274 65.61 0.970003C65.599 0.869872 65.6083 0.768547 65.6372 0.672074C65.6662 0.5756 65.7144 0.485957 65.7788 0.408493C65.8432 0.331029 65.9225 0.267332 66.0121 0.221203C66.1016 0.175073 66.1996 0.147458 66.3 0.140003C66.627 0.0818813 66.958 0.0484537 67.29 0.0400035H68.9L70.58 0.0900037L71.87 0.160003C72.3 0.210003 72.52 0.480003 72.52 0.990003C72.5225 1.16091 72.4812 1.32961 72.4 1.48C72.3433 1.55679 72.2669 1.61683 72.1789 1.6538C72.0909 1.69076 71.9945 1.70327 71.9 1.69C71.7089 1.68298 71.5184 1.66293 71.33 1.63C70.9778 1.59411 70.624 1.57742 70.27 1.58C70.16 3.17 70.09 4.76 70.08 6.34C70.07 7.92 70.08 9.41 70.08 10.79C70.08 12.17 70.08 13.38 70.08 14.39C70.1178 16.4094 69.8994 18.4255 69.43 20.39C69.1178 21.83 68.3199 23.1187 67.17 24.04C65.792 24.9389 64.1626 25.3734 62.52 25.28Z" fill="#FFE67B"/>
<path id="Vector_15" d="M81.42 31.83C79.9662 31.8902 78.5157 31.6485 77.16 31.12C76.2814 30.7556 75.53 30.1398 75 29.35C74.5974 28.7581 74.3687 28.0653 74.34 27.35C74.352 26.7898 74.4995 26.2408 74.77 25.75C75.1663 25.1114 75.7755 24.6333 76.49 24.4C75.892 24.0719 75.3812 23.6056 75 23.04C74.6534 22.5372 74.4685 21.9407 74.47 21.33C74.4709 20.7268 74.6832 20.143 75.07 19.68C75.491 19.179 76.0753 18.8426 76.72 18.73C75.8929 18.2458 75.2042 17.5571 74.72 16.73C74.2087 15.7764 73.9648 14.7023 74.014 13.6214C74.0633 12.5405 74.404 11.4931 75 10.59C75.6894 9.57677 76.6394 8.76835 77.75 8.25001C79.0279 7.6482 80.4277 7.35042 81.84 7.38001C83.0236 7.38379 84.1917 7.6502 85.26 8.16001C86.3674 8.67901 87.314 9.48748 88 10.5C88.7565 11.6929 89.1299 13.0887 89.07 14.5C89.07 15.5819 88.7191 16.6345 88.07 17.5C87.3744 18.4342 86.4566 19.1801 85.4 19.67C84.1999 20.2272 82.8931 20.5172 81.57 20.52C81.1107 20.5104 80.6542 20.4466 80.21 20.33C79.6922 20.1931 79.1871 20.0125 78.7 19.79C78.1642 19.726 77.6224 19.8421 77.16 20.12C76.9639 20.2259 76.8006 20.3835 76.6878 20.5757C76.575 20.7678 76.5169 20.9872 76.52 21.21C76.4911 21.4357 76.5276 21.6649 76.6251 21.8705C76.7226 22.0761 76.877 22.2495 77.07 22.37C77.4574 22.5653 77.8861 22.6648 78.32 22.66C78.7969 22.654 79.2723 22.6038 79.74 22.51C80.27 22.4 80.93 22.3 81.74 22.21C82.7365 22.1069 83.7381 22.0601 84.74 22.07C85.3393 22.0518 85.9361 22.1549 86.4946 22.3732C87.0531 22.5914 87.5617 22.9203 87.99 23.34C88.4314 23.8068 88.7727 24.359 88.9929 24.9627C89.213 25.5663 89.3073 26.2086 89.27 26.85C89.2683 27.6461 88.9969 28.4181 88.5 29.04C88.0025 29.6946 87.3632 30.228 86.63 30.6C85.8341 31.0286 84.9826 31.345 84.1 31.54C83.2197 31.7333 82.3211 31.8305 81.42 31.83ZM77.61 29.16C78.3244 29.5295 79.0892 29.7923 79.88 29.94C80.8665 30.1453 81.8802 30.1858 82.88 30.06C84.0027 29.9435 85.0907 29.6035 86.08 29.06C86.2529 28.5476 86.3866 28.0227 86.48 27.49C86.547 26.9294 86.4678 26.3609 86.25 25.84C85.2612 26.0436 84.2582 26.1707 83.25 26.22C82.1613 26.295 81.0687 26.295 79.98 26.22C78.9993 26.1551 78.0259 26.0079 77.07 25.78C76.9447 26.3701 76.9447 26.9799 77.07 27.57C77.1465 28.1297 77.3298 28.6695 77.61 29.16ZM83.95 18.16C84.0684 16.7158 84.0684 15.2642 83.95 13.82C83.8471 12.6128 83.8874 11.3977 84.07 10.2C83.6559 9.77993 83.1272 9.49123 82.55 9.37001C81.9407 9.23481 81.3092 9.23481 80.7 9.37001C80.0663 9.49799 79.4687 9.76433 78.95 10.15C78.8174 10.7748 78.747 11.4113 78.74 12.05C78.74 12.63 78.74 13.2 78.81 13.75C78.88 14.3 78.88 14.89 78.9 15.5C78.9069 16.1889 78.8635 16.8774 78.77 17.56C79.2193 17.9586 79.7474 18.2584 80.32 18.44C80.9394 18.6578 81.5937 18.7595 82.25 18.74C82.8836 18.7493 83.5013 18.5411 84 18.15L83.95 18.16ZM85.51 10.16L85.33 9.16001C85.8189 9.15431 86.2954 9.00476 86.7 8.73001C86.8103 8.63816 86.8995 8.52363 86.9617 8.39422C87.0238 8.2648 87.0573 8.12353 87.06 7.98001C87.0584 7.84974 87.027 7.72157 86.968 7.6054C86.9091 7.48923 86.8242 7.38816 86.72 7.31001C86.4736 7.09661 86.2461 6.86242 86.04 6.61001C85.8069 6.31129 85.6897 5.93836 85.71 5.56001C85.7047 5.24314 85.7713 4.92921 85.9046 4.64173C86.038 4.35424 86.2347 4.10067 86.48 3.90001C86.9633 3.46737 87.5913 3.23185 88.24 3.24001C88.62 3.20813 89.0024 3.26366 89.3577 3.40232C89.713 3.54098 90.0319 3.75911 90.29 4.04001C90.7624 4.5979 91.0149 5.3091 91 6.04001C90.992 6.77574 90.7226 7.48466 90.24 8.04001C89.6947 8.67679 89.0105 9.17973 88.24 9.51001C87.3798 9.89751 86.4527 10.1148 85.51 10.15V10.16Z" fill="#FFE67B"/>
<path id="Vector_16" d="M98.6 25.04C96.9358 25.103 95.2796 24.7813 93.76 24.1C93.1852 23.8447 92.7009 23.4216 92.3708 22.8863C92.0407 22.3509 91.88 21.7283 91.91 21.1C91.8795 20.4593 92.0358 19.8235 92.36 19.27C92.6366 18.8346 93.0095 18.4685 93.45 18.2C93.8299 17.9626 94.245 17.7871 94.68 17.68C95.4361 17.4595 96.2141 17.3221 97 17.27L99.17 17.11C99.9657 17.0569 100.757 16.9533 101.54 16.8C101.433 15.8038 101.396 14.8013 101.43 13.8C101.43 12.5 101.43 11.11 101.5 9.63C101.151 9.38977 100.756 9.22307 100.34 9.14C99.8544 9.05863 99.3621 9.02514 98.87 9.04C98.0989 9.008 97.3303 9.14806 96.62 9.45C96.04 9.73 95.76 9.98 95.76 10.21C95.7692 10.3271 95.8104 10.4395 95.8792 10.5347C95.948 10.63 96.0417 10.7045 96.15 10.75C96.4233 10.8967 96.7233 11.0767 97.05 11.29C97.4058 11.486 97.7268 11.7394 98 12.04C98.2703 12.3916 98.4083 12.8269 98.39 13.27C98.3982 13.6493 98.3217 14.0257 98.166 14.3717C98.0103 14.7177 97.7793 15.0246 97.49 15.27C97.0059 15.7106 96.3878 15.9757 95.735 16.0228C95.0821 16.07 94.4324 15.8964 93.89 15.53C93.3857 15.1945 92.9705 14.7415 92.68 14.21C92.3873 13.6983 92.2323 13.1195 92.23 12.53C92.1816 11.4652 92.539 10.4216 93.23 9.61C93.9545 8.81354 94.87 8.21472 95.89 7.87C96.9596 7.49252 98.0857 7.29977 99.22 7.3C100.839 7.19172 102.457 7.53807 103.89 8.3C105.025 9.054 105.83 10.2128 106.14 11.54C106.606 13.3994 106.818 15.3136 106.77 17.23C106.77 18.23 106.77 19.28 106.65 20.4C106.56 21.605 106.56 22.815 106.65 24.02C106.65 24.39 106.65 24.63 106.41 24.73C106.183 24.8425 105.933 24.8974 105.68 24.89C105.507 24.8936 105.339 24.8365 105.203 24.7288C105.068 24.621 104.975 24.4693 104.94 24.3C104.823 23.9495 104.665 23.6139 104.47 23.3C103.942 23.6432 103.379 23.9282 102.79 24.15C102.098 24.4151 101.386 24.6224 100.66 24.77C99.984 24.928 99.2939 25.0185 98.6 25.04ZM97.18 23.04C97.8863 23.2669 98.6313 23.3485 99.37 23.28C100.167 23.1903 100.945 22.9813 101.68 22.66C101.881 22.0105 102.002 21.3388 102.04 20.66C102.1 19.9036 102.083 19.1431 101.99 18.39C101.421 18.5633 100.834 18.6707 100.24 18.71C99.6 18.71 99 18.8 98.42 18.86C97.9242 18.8945 97.4408 19.0306 97 19.26C97.0972 19.6488 97.1377 20.0496 97.12 20.45V21.87C97.0961 22.261 97.1162 22.6535 97.18 23.04Z" fill="#FFE67B"/>
<path id="Vector_17" d="M63.9999 58.91C63.622 58.9136 63.2453 58.8665 62.8799 58.77C62.6096 58.7175 62.3678 58.5682 62.1999 58.35C61.6499 56.27 61.0499 54.24 60.4199 52.26C59.7899 50.28 59.1399 48.26 58.4899 46.16C57.8399 44.06 57.2299 41.88 56.6299 39.55C56.6899 40.68 56.7299 41.73 56.7299 42.68C56.7299 43.63 56.7299 44.59 56.6799 45.54C56.6299 46.49 56.6099 47.54 56.5699 48.54C56.5299 49.54 56.5699 50.83 56.4999 52.18C56.4299 53.53 56.4999 55.1 56.5899 56.9C57.1079 56.9414 57.6224 57.0182 58.1299 57.13C58.5999 57.23 58.8399 57.48 58.8399 57.87C58.8399 58.26 58.6599 58.52 58.2899 58.49C57.6399 58.49 57.0599 58.4 56.5399 58.34C56.0199 58.28 55.5399 58.24 54.9499 58.22C54.3166 58.1975 53.6829 58.2445 53.0599 58.36C52.8299 58.36 52.6699 58.36 52.5899 58.2C52.5037 58.0227 52.4624 57.827 52.4699 57.63C52.4666 57.479 52.5204 57.3324 52.6205 57.2193C52.7206 57.1062 52.8596 57.0351 53.0099 57.02C53.5177 56.9239 54.0331 56.8737 54.5499 56.87C54.4799 54.81 54.4599 53.02 54.4799 51.5C54.4999 49.98 54.5399 48.62 54.5799 47.43C54.6199 46.24 54.6699 45.12 54.6999 44.07C54.7299 43.02 54.6999 41.95 54.6999 40.85C54.6712 39.6193 54.5777 38.3909 54.4199 37.17C54.4044 36.6627 54.3134 36.1605 54.1499 35.68C54.0479 35.4675 53.8825 35.2919 53.6765 35.1773C53.4706 35.0627 53.2342 35.0147 52.9999 35.04C52.3999 35.04 52.0999 34.84 52.0999 34.42C52.0991 34.2217 52.1701 34.0299 52.2999 33.88C52.3729 33.8038 52.4619 33.7446 52.5604 33.7065C52.6589 33.6685 52.7645 33.6526 52.8699 33.66C54.2999 33.66 55.5099 33.66 56.4999 33.59C57.4899 33.52 58.3099 33.52 58.9599 33.52C59.6099 33.52 59.8699 33.61 60.0199 33.8C60.1964 34.0454 60.3097 34.3304 60.3499 34.63C60.6399 36.13 60.9499 37.5 61.2499 38.75C61.5499 40 61.8599 41.16 62.1799 42.25C62.4999 43.34 62.8299 44.4 63.1799 45.45C63.5299 46.5 63.8499 47.59 64.1799 48.72C64.5099 49.85 64.8599 51.09 65.1799 52.43C65.4099 51.2 65.6999 49.89 66.0499 48.43C66.3999 46.97 66.7599 45.61 67.1599 44.19L68.2799 40.1C68.6399 38.8 68.9499 37.63 69.2199 36.6C69.4396 35.7883 69.6066 34.9633 69.7199 34.13C69.7426 33.906 69.8533 33.7001 70.0277 33.5576C70.202 33.4151 70.4258 33.3477 70.6499 33.37C70.8099 33.37 71.1432 33.37 71.6499 33.37H75.1799C75.7899 33.37 76.3299 33.37 76.7899 33.37H77.6499C77.7608 33.3432 77.8766 33.3428 77.9877 33.3689C78.0989 33.3949 78.2023 33.4467 78.2899 33.52C78.4126 33.6985 78.4692 33.9142 78.4499 34.13C78.4499 34.57 78.2099 34.82 77.7199 34.89C77.4199 34.94 77.1299 34.97 76.8599 34.99C76.6167 35.0031 76.373 35.0031 76.1299 34.99C76.2909 37.1661 76.331 39.3495 76.2499 41.53C76.1699 43.77 76.0999 46.13 76.0399 48.61C75.9799 51.1 76.0399 53.79 76.1999 56.7C76.8689 56.6626 77.5401 56.7028 78.1999 56.82C78.6099 56.92 78.8099 57.13 78.8099 57.43C78.8099 57.98 78.5699 58.26 78.0799 58.26C76.5399 58.26 75.0099 58.26 73.4899 58.26C71.9807 58.2901 70.4747 58.4103 68.9799 58.62C68.871 58.6354 68.76 58.6233 68.6569 58.5849C68.5539 58.5465 68.4621 58.4829 68.3899 58.4C68.222 58.2117 68.1232 57.9719 68.1099 57.72C68.1099 57.38 68.3399 57.15 68.8699 57.03C69.1699 56.98 69.4999 56.94 69.8699 56.91L70.8699 56.82C70.7565 54.58 70.7299 52.4867 70.7899 50.54C70.8399 48.54 70.9099 46.68 70.9799 44.82C71.0427 42.9455 70.9959 41.069 70.8399 39.2C70.1499 41.2 69.5399 43.2 69.0399 45.2C68.5399 47.2 68.0399 49.26 67.5099 51.38C66.9799 53.5 66.4199 55.8 65.7499 58.27C65.7499 58.43 65.4999 58.55 65.1399 58.63C64.7749 58.7764 64.3911 58.8706 63.9999 58.91Z" fill="#FFE67B"/>
<path id="Vector_18" d="M81.5299 58.84C81.2994 58.8608 81.0671 58.8301 80.8499 58.75C80.6299 58.67 80.5099 58.44 80.4899 58.07C80.4899 57.5 81.2399 57.22 82.8099 57.24C82.7399 55.74 82.7099 54.44 82.7199 53.33C82.7299 52.22 82.7199 51.19 82.8099 50.23C82.8999 49.27 82.8799 48.28 82.8799 47.23C82.8799 46.18 82.8199 44.98 82.6999 43.59C82.3725 43.6857 82.0382 43.7559 81.6999 43.8C81.3687 43.8475 81.0345 43.8709 80.6999 43.87C80.5053 43.8801 80.3136 43.8198 80.1599 43.7C80.093 43.6319 80.0415 43.5502 80.0087 43.4605C79.9759 43.3709 79.9627 43.2752 79.9699 43.18C79.973 42.9993 80.0403 42.8255 80.1599 42.69C80.2316 42.6078 80.3189 42.5407 80.4167 42.4926C80.5146 42.4445 80.6211 42.4164 80.7299 42.41C81.7423 42.3728 82.7479 42.2287 83.7299 41.98C84.6115 41.7486 85.5185 41.6277 86.4299 41.62C86.6261 41.582 86.8292 41.6081 87.0093 41.6946C87.1894 41.781 87.3369 41.9232 87.4299 42.1C87.5781 42.4142 87.6663 42.7534 87.6899 43.1C87.808 44.6236 87.8447 46.1525 87.7999 47.68C87.7499 49.27 87.6899 50.85 87.6199 52.45C87.5499 54.05 87.5399 55.6 87.6199 57.12C88.1643 57.0959 88.7097 57.1193 89.2499 57.19C89.7299 57.26 89.9899 57.49 90.0099 57.88C90.0238 57.984 90.0168 58.0898 89.9893 58.1911C89.9618 58.2924 89.9145 58.3872 89.8499 58.47C89.7885 58.5493 89.7069 58.6105 89.6137 58.6475C89.5204 58.6844 89.419 58.6957 89.3199 58.68C88.5489 58.6053 87.7745 58.5719 86.9999 58.58C86.0599 58.58 85.1099 58.58 84.1199 58.63C83.1299 58.68 82.2599 58.74 81.5299 58.84ZM85.3699 38.96C84.955 38.9882 84.5388 38.926 84.1503 38.7775C83.7618 38.629 83.4103 38.3978 83.1199 38.1C82.6025 37.4942 82.3312 36.7162 82.3599 35.92C82.357 35.4617 82.4816 35.0115 82.7199 34.62C82.9532 34.1997 83.2996 33.8533 83.7199 33.62C84.1927 33.3658 84.7233 33.2384 85.2599 33.25C86.0021 33.273 86.707 33.5808 87.2283 34.1096C87.7496 34.6384 88.0474 35.3475 88.0599 36.09C88.0721 36.8222 87.816 37.5336 87.3399 38.09C87.0986 38.3743 86.7959 38.6003 86.4547 38.751C86.1136 38.9017 85.7427 38.9731 85.3699 38.96Z" fill="#FFE67B"/>
<path id="Vector_19" d="M95.86 58.73C95.63 58.73 95.24 58.73 94.68 58.66C94.12 58.59 93.52 58.55 92.86 58.47C92.2 58.39 91.58 58.33 90.98 58.28C90.906 58.2725 90.8346 58.249 90.7706 58.211C90.7067 58.173 90.6519 58.1214 90.61 58.06C90.5414 57.9626 90.4999 57.8487 90.49 57.73C90.49 57.17 90.72 56.9 91.18 56.9C91.3595 56.8812 91.5405 56.8812 91.72 56.9L92.47 57.02C93.23 55.6867 94.11 54.26 95.11 52.74C96.0799 51.3066 97.1282 49.9279 98.25 48.61L99.25 48.36L101.68 44.69C102.42 43.59 102.93 42.85 103.23 42.48C102.45 42.41 101.98 42.26 101.83 42.03C101.69 41.8268 101.614 41.5867 101.61 41.34C101.609 41.2703 101.626 41.2016 101.66 41.1404C101.693 41.0791 101.741 41.0274 101.8 40.99C101.924 40.8977 102.075 40.8486 102.23 40.85C102.899 40.8679 103.567 40.9213 104.23 41.01C105.113 41.1079 106.001 41.1579 106.89 41.16C106.975 41.1485 107.062 41.1568 107.144 41.1844C107.226 41.2119 107.3 41.258 107.361 41.319C107.422 41.38 107.468 41.4542 107.496 41.5359C107.523 41.6176 107.532 41.7046 107.52 41.79C107.504 41.9864 107.439 42.1756 107.33 42.34C107.255 42.4482 107.152 42.5341 107.033 42.5886C106.913 42.6432 106.781 42.6644 106.65 42.65C106.54 42.65 106.35 42.65 106.08 42.65C105.857 42.663 105.633 42.663 105.41 42.65C104.41 43.88 103.61 45.09 102.84 46.29C102.07 47.49 101.38 48.58 100.73 49.58L99.73 49.82C98.7559 50.9318 97.8445 52.0969 97 53.31C96.1248 54.559 95.3459 55.8728 94.67 57.24L95.36 57.3H95.95C96.39 57.3 96.61 57.55 96.61 58.03C96.6128 58.207 96.5485 58.3785 96.43 58.51C96.3592 58.5892 96.2706 58.6505 96.1715 58.6888C96.0724 58.727 95.9656 58.7412 95.86 58.73ZM107.22 58.66H106.11L104.05 58.57L101.59 58.49C100.75 58.49 99.96 58.49 99.22 58.49C99.1142 58.5038 99.0066 58.4908 98.907 58.4524C98.8075 58.414 98.7191 58.3513 98.65 58.27C98.5396 58.1121 98.4835 57.9226 98.49 57.73C98.49 57.38 98.71 57.16 99.15 57.05C99.5797 56.9514 100.019 56.9011 100.46 56.9C99.9967 55.6234 99.4385 54.3833 98.79 53.19C98.17 52.09 97.54 51.01 96.88 49.97C96.22 48.93 95.55 47.82 94.88 46.63C94.1104 45.3034 93.416 43.9346 92.8 42.53H92H91.2C91.103 42.5369 91.0059 42.5183 90.9182 42.4763C90.8305 42.4342 90.7553 42.37 90.7 42.29C90.6007 42.1311 90.548 41.9474 90.548 41.76C90.548 41.5726 90.6007 41.3889 90.7 41.23C90.7571 41.132 90.8412 41.0525 90.9423 41.0011C91.0434 40.9496 91.1572 40.9284 91.27 40.94C91.67 40.94 92.27 40.94 93.02 40.87L95.46 40.71L97.73 40.55L98.93 40.49C99.1055 40.4854 99.2765 40.5459 99.41 40.66C99.4785 40.7127 99.5332 40.7811 99.5698 40.8594C99.6063 40.9377 99.6235 41.0237 99.62 41.11C99.6145 41.3039 99.5808 41.4959 99.52 41.68C99.493 41.7719 99.4381 41.8531 99.3628 41.9122C99.2875 41.9714 99.1956 42.0056 99.1 42.01L98.41 42.06C98.1741 42.0643 97.9393 42.0945 97.71 42.15C98.283 43.4087 98.9206 44.637 99.62 45.83C100.26 46.93 100.92 48.02 101.62 49.11C102.32 50.2 102.97 51.36 103.67 52.62C104.428 54.0533 105.102 55.5291 105.69 57.04C106.216 57.0347 106.741 57.0986 107.25 57.23C107.55 57.33 107.7 57.59 107.7 58.01C107.7 58.46 107.54 58.66 107.22 58.66Z" fill="#FFE67B"/>
</g>
</g>
</g>
<defs>
<clipPath id="clip0_31_35">
<rect width="107.7" height="58.9" fill="white"/>
</clipPath>
</defs>
</svg>
